<svg xmlns="http://www.w3.org/2000/svg" width="1280" height="420" viewBox="0 0 1280 420" role="img" aria-labelledby="title desc">
  <title id="title">Reckonry banner</title>
  <desc id="desc">A dark premium banner for Reckonry with the message Build. Verify. Trust.</desc>
  <rect width="1280" height="420" rx="34" fill="#0B0F14"/>
  <path d="M0 330h1280" stroke="#1A222E" stroke-width="1"/>
  <path d="M0 252h1280" stroke="#111821" stroke-width="1"/>
  <path d="M760 92h356M810 142h252M724 314h392" stroke="#243041" stroke-width="2" stroke-linecap="round"/>
  <path d="M876 88v216M936 118v186M996 76v228M1056 142v162" stroke="#121A25" stroke-width="2"/>
  <circle cx="876" cy="156" r="8" fill="#3B82F6"/>
  <circle cx="936" cy="212" r="8" fill="#F97316"/>
  <circle cx="996" cy="132" r="8" fill="#22C55E"/>
  <circle cx="1056" cy="236" r="8" fill="#3B82F6"/>
  <path d="M876 156l60 56 60-80 60 104" fill="none" stroke="#2D6CDF" stroke-width="5" stroke-linecap="round" stroke-linejoin="round"/>
  <g transform="translate(88 92)">
    <rect x="0" y="0" width="160" height="160" rx="36" fill="#F8FAFC"/>
    <path d="M48 38h56l24 24v58H48z" fill="#0B0F14"/>
    <path d="M104 38v24h24" fill="#243041"/>
    <path d="M62 76h48M62 98h32" stroke="#F8FAFC" stroke-width="8" stroke-linecap="round"/>
    <path d="M40 126l28 22 58-66" fill="none" stroke="#F97316" stroke-width="14" stroke-linecap="round" stroke-linejoin="round"/>
    <path d="M28 28h104" stroke="#3B82F6" stroke-width="6" stroke-linecap="round"/>
  </g>
  <text x="304" y="166" fill="#F8FAFC" font-family="Inter, Geist, Manrope, Arial, sans-serif" font-size="72" font-weight="760" letter-spacing="0">Reckonry</text>
  <text x="308" y="222" fill="#D9E2EC" font-family="Inter, Geist, Manrope, Arial, sans-serif" font-size="30" font-weight="500" letter-spacing="0">Build. Verify. Trust.</text>
  <text x="308" y="272" fill="#8B99A8" font-family="Inter, Geist, Manrope, Arial, sans-serif" font-size="23" font-weight="450" letter-spacing="0">Open-source digital asset ledger infrastructure.</text>
  <path d="M310 306h180" stroke="#F97316" stroke-width="7" stroke-linecap="round"/>
</svg>
