<svg xmlns="http://www.w3.org/2000/svg" width="1280" height="420" viewBox="0 0 1280 420" role="img" aria-labelledby="title desc">
  <title id="title">LedgerForge banner</title>
  <desc id="desc">Dark GitHub banner for LedgerForge with an anvil ledger logo and the tagline Build a verifiable crypto ledger from messy exchange exports.</desc>
  <defs>
    <linearGradient id="bg" x1="0" y1="0" x2="1" y2="1">
      <stop offset="0" stop-color="#0F172A"/>
      <stop offset="0.56" stop-color="#111827"/>
      <stop offset="1" stop-color="#020617"/>
    </linearGradient>
    <linearGradient id="amber" x1="0" y1="0" x2="1" y2="1">
      <stop offset="0" stop-color="#FBBF24"/>
      <stop offset="1" stop-color="#F97316"/>
    </linearGradient>
    <radialGradient id="glow" cx="0.26" cy="0.44" r="0.54">
      <stop offset="0" stop-color="#F59E0B" stop-opacity="0.22"/>
      <stop offset="1" stop-color="#F59E0B" stop-opacity="0"/>
    </radialGradient>
  </defs>
  <rect width="1280" height="420" rx="40" fill="url(#bg)"/>
  <rect width="1280" height="420" rx="40" fill="url(#glow)"/>
  <path d="M932 54h250M990 104h164M888 322h246M958 366h188" stroke="#334155" stroke-width="2" stroke-linecap="round"/>
  <path d="M896 112l42-32 66 34 50-42M938 80v92M1004 114v100M1054 72v82M938 172l66 42 50-60" stroke="#1E40AF" stroke-width="5" stroke-linecap="round" stroke-linejoin="round" opacity="0.8"/>
  <circle cx="938" cy="80" r="12" fill="#A78BFA"/>
  <circle cx="1004" cy="114" r="12" fill="#38BDF8"/>
  <circle cx="1054" cy="72" r="12" fill="#F59E0B"/>
  <circle cx="938" cy="172" r="12" fill="#38BDF8"/>
  <circle cx="1004" cy="214" r="12" fill="#A78BFA"/>
  <circle cx="1054" cy="154" r="12" fill="#F59E0B"/>
  <g transform="translate(84 74)">
    <path d="M52 184h332l-42 58h-98v56h-60v-56H94z" fill="url(#amber)"/>
    <path d="M94 132h248l42 52H52z" fill="#FB923C"/>
    <path d="M112 22h200c39 0 70 31 70 70v100H112c-34 0-62-28-62-62V84c0-34 28-62 62-62z" fill="#1E293B" stroke="#F59E0B" stroke-width="15"/>
    <path d="M120 74h146M120 116h188M120 158h130" stroke="#CBD5E1" stroke-width="15" stroke-linecap="round"/>
    <path d="M306 58l52-38 58 42M358 20v92M416 62v80M358 112l58 30" stroke="#38BDF8" stroke-width="10" stroke-linecap="round" stroke-linejoin="round"/>
    <circle cx="358" cy="20" r="18" fill="#A78BFA" stroke="#E0E7FF" stroke-width="5"/>
    <circle cx="416" cy="62" r="18" fill="#38BDF8" stroke="#E0F2FE" stroke-width="5"/>
    <circle cx="358" cy="112" r="18" fill="#F59E0B" stroke="#FEF3C7" stroke-width="5"/>
    <circle cx="416" cy="142" r="18" fill="#A78BFA" stroke="#E0E7FF" stroke-width="5"/>
  </g>
  <text x="548" y="164" fill="#F8FAFC" font-family="Arial, Helvetica, sans-serif" font-size="76" font-weight="700" letter-spacing="0">LedgerForge</text>
  <text x="552" y="222" fill="#CBD5E1" font-family="Arial, Helvetica, sans-serif" font-size="30" letter-spacing="0">Build a verifiable crypto ledger from messy exchange exports.</text>
  <path d="M554 252h264" stroke="#F59E0B" stroke-width="10" stroke-linecap="round"/>
  <text x="552" y="308" fill="#94A3B8" font-family="Arial, Helvetica, sans-serif" font-size="22" letter-spacing="0">Importers -> Canonical Ledger -> Reports -> Future Tax Modules</text>
</svg>
