<svg xmlns="http://www.w3.org/2000/svg" width="1280" height="720" viewBox="0 0 1280 720" role="img" aria-labelledby="title desc">
  <title id="title">Reckonry cover background</title>
  <desc id="desc">Abstract verification grid and ledger interface background for Reckonry documents.</desc>
  <rect width="1280" height="720" rx="36" fill="#0B0F14"/>
  <path d="M80 120h1120M80 240h1120M80 360h1120M80 480h1120M80 600h1120" stroke="#151D29" stroke-width="1"/>
  <path d="M180 80v560M380 80v560M580 80v560M780 80v560M980 80v560" stroke="#151D29" stroke-width="1"/>
  <rect x="112" y="112" width="420" height="276" rx="24" fill="#111821" stroke="#243041" stroke-width="2"/>
  <rect x="748" y="138" width="380" height="220" rx="24" fill="#111821" stroke="#243041" stroke-width="2"/>
  <rect x="176" y="452" width="820" height="112" rx="24" fill="#111821" stroke="#243041" stroke-width="2"/>
  <path d="M168 188h280M168 244h224M168 300h300" stroke="#536171" stroke-width="14" stroke-linecap="round"/>
  <path d="M812 254l58 46 132-146" fill="none" stroke="#F97316" stroke-width="24" stroke-linecap="round" stroke-linejoin="round"/>
  <circle cx="244" cy="508" r="10" fill="#3B82F6"/>
  <circle cx="424" cy="508" r="10" fill="#F97316"/>
  <circle cx="604" cy="508" r="10" fill="#22C55E"/>
  <circle cx="784" cy="508" r="10" fill="#3B82F6"/>
  <path d="M244 508h180l180 0h180" stroke="#334155" stroke-width="5" stroke-linecap="round"/>
  <text x="112" y="646" fill="#F8FAFC" font-family="Inter, Geist, Manrope, Arial, sans-serif" font-size="42" font-weight="760">Build. Verify. Trust.</text>
</svg>
