<svg xmlns="http://www.w3.org/2000/svg" width="512" height="512" viewBox="0 0 512 512" role="img" aria-labelledby="title desc">
  <title id="title">LedgerForge icon</title>
  <desc id="desc">A dark square icon combining an amber forge anvil, a ledger book, and connected blockchain nodes.</desc>
  <defs>
    <linearGradient id="bg" x1="0" y1="0" x2="1" y2="1">
      <stop offset="0" stop-color="#0F172A"/>
      <stop offset="1" stop-color="#020617"/>
    </linearGradient>
    <linearGradient id="amber" x1="0" y1="0" x2="1" y2="1">
      <stop offset="0" stop-color="#FBBF24"/>
      <stop offset="1" stop-color="#F97316"/>
    </linearGradient>
  </defs>
  <rect width="512" height="512" rx="96" fill="url(#bg)"/>
  <path d="M116 318h280l-34 44h-82v46h-48v-46h-82z" fill="url(#amber)"/>
  <path d="M150 274h212l34 44H116z" fill="#FB923C"/>
  <path d="M162 132h166c31 0 56 25 56 56v84H162c-27 0-50-22-50-50v-40c0-28 22-50 50-50z" fill="#1E293B" stroke="#F59E0B" stroke-width="14"/>
  <path d="M160 176h134M160 214h172M160 252h112" stroke="#CBD5E1" stroke-width="16" stroke-linecap="round"/>
  <path d="M326 160l44-34 50 38M370 126v82M420 164v70M370 208l50 26" stroke="#38BDF8" stroke-width="10" stroke-linecap="round" stroke-linejoin="round"/>
  <circle cx="370" cy="126" r="18" fill="#A78BFA" stroke="#E0E7FF" stroke-width="6"/>
  <circle cx="420" cy="164" r="18" fill="#38BDF8" stroke="#E0F2FE" stroke-width="6"/>
  <circle cx="370" cy="208" r="18" fill="#F59E0B" stroke="#FEF3C7" stroke-width="6"/>
  <circle cx="420" cy="234" r="18" fill="#A78BFA" stroke="#E0E7FF" stroke-width="6"/>
</svg>
