<svg xmlns="http://www.w3.org/2000/svg" width="980" height="260" viewBox="0 0 980 260" role="img" aria-labelledby="title desc">
  <title id="title">LedgerForge logo</title>
  <desc id="desc">LedgerForge wordmark with a stylized anvil, ledger book, and connected blockchain nodes on a dark background.</desc>
  <defs>
    <linearGradient id="bg" x1="0" y1="0" x2="1" y2="1">
      <stop offset="0" stop-color="#0F172A"/>
      <stop offset="1" stop-color="#020617"/>
    </linearGradient>
    <linearGradient id="amber" x1="0" y1="0" x2="1" y2="1">
      <stop offset="0" stop-color="#FBBF24"/>
      <stop offset="1" stop-color="#F97316"/>
    </linearGradient>
  </defs>
  <rect width="980" height="260" rx="36" fill="url(#bg)"/>
  <g transform="translate(54 38)">
    <path d="M34 128h236l-30 40h-68v38h-42v-38H64z" fill="url(#amber)"/>
    <path d="M64 92h176l30 36H34z" fill="#FB923C"/>
    <path d="M78 14h142c28 0 50 22 50 50v72H78c-24 0-44-20-44-44V58c0-24 20-44 44-44z" fill="#1E293B" stroke="#F59E0B" stroke-width="10"/>
    <path d="M82 50h104M82 80h134M82 110h92" stroke="#CBD5E1" stroke-width="11" stroke-linecap="round"/>
    <path d="M218 40l38-26 42 30M256 14v66M298 44v58M256 80l42 22" stroke="#38BDF8" stroke-width="7" stroke-linecap="round" stroke-linejoin="round"/>
    <circle cx="256" cy="14" r="13" fill="#A78BFA" stroke="#E0E7FF" stroke-width="4"/>
    <circle cx="298" cy="44" r="13" fill="#38BDF8" stroke="#E0F2FE" stroke-width="4"/>
    <circle cx="256" cy="80" r="13" fill="#F59E0B" stroke="#FEF3C7" stroke-width="4"/>
    <circle cx="298" cy="102" r="13" fill="#A78BFA" stroke="#E0E7FF" stroke-width="4"/>
  </g>
  <text x="390" y="119" fill="#F8FAFC" font-family="Arial, Helvetica, sans-serif" font-size="62" font-weight="700" letter-spacing="0">LedgerForge</text>
  <text x="394" y="166" fill="#CBD5E1" font-family="Arial, Helvetica, sans-serif" font-size="25" letter-spacing="0">Verifiable crypto ledger engine</text>
  <path d="M394 190h206" stroke="#F59E0B" stroke-width="8" stroke-linecap="round"/>
</svg>
